<mxfile host="app.diagrams.net" agent="Mozilla/5.0 (Windows NT 10.0; Win64; x64) AppleWebKit/537.36 (KHTML, like Gecko) Chrome/140.0.0.0 Safari/537.36" version="28.2.5">
  <diagram name="Trang-1" id="w24V0h7XoZxSH8bGgSiY">
    <mxGraphModel dx="872" dy="473" grid="1" gridSize="10" guides="1" tooltips="1" connect="1" arrows="1" fold="1" page="1" pageScale="1" pageWidth="827" pageHeight="1169" math="0" shadow="0">
      <root>
        <mxCell id="0" />
        <mxCell id="1" parent="0" />
        <mxCell id="L1dyaV7koPr55c2kJUpB-6" style="edgeStyle=orthogonalEdgeStyle;rounded=0;orthogonalLoop=1;jettySize=auto;html=1;exitX=0.5;exitY=1;exitDx=0;exitDy=0;" edge="1" parent="1" source="L1dyaV7koPr55c2kJUpB-1" target="L1dyaV7koPr55c2kJUpB-2">
          <mxGeometry relative="1" as="geometry" />
        </mxCell>
        <mxCell id="L1dyaV7koPr55c2kJUpB-1" value="Start" style="ellipse;whiteSpace=wrap;html=1;" vertex="1" parent="1">
          <mxGeometry x="340" y="40" width="120" height="80" as="geometry" />
        </mxCell>
        <mxCell id="L1dyaV7koPr55c2kJUpB-7" style="edgeStyle=orthogonalEdgeStyle;rounded=0;orthogonalLoop=1;jettySize=auto;html=1;exitX=0.5;exitY=1;exitDx=0;exitDy=0;entryX=0.5;entryY=0;entryDx=0;entryDy=0;" edge="1" parent="1" source="L1dyaV7koPr55c2kJUpB-2" target="L1dyaV7koPr55c2kJUpB-3">
          <mxGeometry relative="1" as="geometry" />
        </mxCell>
        <mxCell id="L1dyaV7koPr55c2kJUpB-2" value="Nháº­p a,b" style="shape=parallelogram;perimeter=parallelogramPerimeter;whiteSpace=wrap;html=1;fixedSize=1;" vertex="1" parent="1">
          <mxGeometry x="340" y="160" width="120" height="60" as="geometry" />
        </mxCell>
        <mxCell id="L1dyaV7koPr55c2kJUpB-8" style="edgeStyle=orthogonalEdgeStyle;rounded=0;orthogonalLoop=1;jettySize=auto;html=1;exitX=0.5;exitY=1;exitDx=0;exitDy=0;" edge="1" parent="1" source="L1dyaV7koPr55c2kJUpB-3" target="L1dyaV7koPr55c2kJUpB-4">
          <mxGeometry relative="1" as="geometry" />
        </mxCell>
        <mxCell id="L1dyaV7koPr55c2kJUpB-3" value="sum = a + b" style="rounded=0;whiteSpace=wrap;html=1;" vertex="1" parent="1">
          <mxGeometry x="340" y="260" width="120" height="60" as="geometry" />
        </mxCell>
        <mxCell id="L1dyaV7koPr55c2kJUpB-9" style="edgeStyle=orthogonalEdgeStyle;rounded=0;orthogonalLoop=1;jettySize=auto;html=1;exitX=0.5;exitY=1;exitDx=0;exitDy=0;entryX=0.5;entryY=0;entryDx=0;entryDy=0;" edge="1" parent="1" source="L1dyaV7koPr55c2kJUpB-4" target="L1dyaV7koPr55c2kJUpB-5">
          <mxGeometry relative="1" as="geometry" />
        </mxCell>
        <mxCell id="L1dyaV7koPr55c2kJUpB-4" value="sum" style="shape=parallelogram;perimeter=parallelogramPerimeter;whiteSpace=wrap;html=1;fixedSize=1;" vertex="1" parent="1">
          <mxGeometry x="340" y="360" width="120" height="60" as="geometry" />
        </mxCell>
        <mxCell id="L1dyaV7koPr55c2kJUpB-5" value="End" style="ellipse;whiteSpace=wrap;html=1;" vertex="1" parent="1">
          <mxGeometry x="340" y="460" width="120" height="80" as="geometry" />
        </mxCell>
      </root>
    </mxGraphModel>
  </diagram>
</mxfile>
